Amstlevar-Italic-opsz144-wght900-wdth125.ufo
<glyph name="exclam" format="2">
  <advance width="801"/>
  <unicode hex="0021"/>
  <outline>
    <contour>
      <point x="64" y="175" type="qcurve" smooth="yes"/>
      <point x="68" y="264"/>
      <point x="185" y="372"/>
      <point x="275" y="372" type="qcurve" smooth="yes"/>
      <point x="359" y="372"/>
      <point x="469" y="260"/>
      <point x="462" y="175" type="qcurve" smooth="yes"/>
      <point x="458" y="86"/>
      <point x="340" y="-20"/>
      <point x="250" y="-20" type="qcurve" smooth="yes"/>
      <point x="166" y="-20"/>
      <point x="58" y="90"/>
    </contour>
    <contour>
      <point x="262" y="1279" type="line" smooth="yes"/>
      <point x="256" y="1402"/>
      <point x="412" y="1545"/>
      <point x="517" y="1545" type="qcurve" smooth="yes"/>
      <point x="622" y="1545"/>
      <point x="729" y="1402"/>
      <point x="676" y="1282" type="qcurve" smooth="yes"/>
      <point x="604" y="1118" type="line"/>
      <point x="497" y="886" type="line"/>
      <point x="357" y="492" type="line"/>
      <point x="271" y="490" type="line"/>
      <point x="300" y="877" type="line"/>
      <point x="269" y="1130" type="line"/>
    </contour>
  </outline>
</glyph>
<glyph name="dollar" format="2">
  <advance width="1126"/>
  <unicode hex="0024"/>
  <outline>
    <contour>
      <point x="-179" y="265" type="qcurve"/>
      <point x="-112" y="325" type="line"/>
      <point x="-48" y="238"/>
      <point x="179" y="103"/>
      <point x="361" y="92" type="qcurve" smooth="yes"/>
      <point x="502" y="83"/>
      <point x="638" y="168"/>
      <point x="658" y="260" type="qcurve" smooth="yes"/>
      <point x="681" y="364"/>
      <point x="532" y="511"/>
      <point x="346" y="601" type="qcurve" smooth="yes"/>
      <point x="128" y="706"/>
      <point x="-42" y="996"/>
      <point x="2" y="1159" type="qcurve" smooth="yes"/>
      <point x="49" y="1340"/>
      <point x="348" y="1506"/>
      <point x="566" y="1506" type="qcurve" smooth="yes"/>
      <point x="759" y="1506"/>
      <point x="1031" y="1346"/>
      <point x="1083" y="1259" type="qcurve"/>
      <point x="1006" y="1205" type="line"/>
      <point x="940" y="1292"/>
      <point x="705" y="1426"/>
      <point x="545" y="1426" type="qcurve" smooth="yes"/>
      <point x="435" y="1426"/>
      <point x="297" y="1376"/>
      <point x="273" y="1297" type="qcurve" smooth="yes"/>
      <point x="250" y="1222"/>
      <point x="404" y="1097"/>
      <point x="597" y="997" type="qcurve" smooth="yes"/>
      <point x="842" y="870"/>
      <point x="1064" y="547"/>
      <point x="984" y="330" type="qcurve" smooth="yes"/>
      <point x="916" y="145"/>
      <point x="583" y="-2"/>
      <point x="391" y="9" type="qcurve" smooth="yes"/>
      <point x="177" y="21"/>
      <point x="-112" y="166"/>
    </contour>
    <contour>
      <point x="270" y="-151" type="line"/>
      <point x="315" y="45" type="line"/>
      <point x="316" y="45" type="line"/>
      <point x="486" y="805" type="line"/>
      <point x="529" y="773" type="line"/>
      <point x="367" y="44" type="line"/>
      <point x="371" y="44" type="line"/>
      <point x="326" y="-154" type="line"/>
    </contour>
    <contour>
      <point x="660" y="1591" type="line"/>
      <point x="717" y="1588" type="line"/>
      <point x="682" y="1440" type="line"/>
      <point x="679" y="1440" type="line"/>
      <point x="531" y="786" type="line"/>
      <point x="487" y="818" type="line"/>
      <point x="628" y="1441" type="line"/>
      <point x="627" y="1441" type="line"/>
    </contour>
  </outline>
</glyph>
<glyph name="ampersand" format="2">
  <advance width="2066"/>
  <unicode hex="0026"/>
  <outline>
    <contour>
      <point x="1280" y="-4" type="line"/>
      <point x="1104" y="217" type="line"/>
      <point x="1019" y="125"/>
      <point x="715" y="-30"/>
      <point x="525" y="-30" type="qcurve" smooth="yes"/>
      <point x="224" y="-30"/>
      <point x="-134" y="209"/>
      <point x="-100" y="402" type="qcurve" smooth="yes"/>
      <point x="-66" y="590"/>
      <point x="367" y="789"/>
      <point x="721" y="804" type="qcurve"/>
      <point x="496" y="835"/>
      <point x="193" y="1057"/>
      <point x="230" y="1231" type="qcurve" smooth="yes"/>
      <point x="269" y="1416"/>
      <point x="673" y="1552"/>
      <point x="960" y="1533" type="qcurve" smooth="yes"/>
      <point x="1071" y="1524"/>
      <point x="1308" y="1452"/>
      <point x="1321" y="1450" type="qcurve" smooth="yes"/>
      <point x="1348" y="1448"/>
      <point x="1394" y="1460"/>
      <point x="1407" y="1487" type="qcurve"/>
      <point x="1509" y="1487" type="line"/>
      <point x="1408" y="1102" type="line"/>
      <point x="1327" y="1102" type="line"/>
      <point x="1317" y="1306" type="line"/>
      <point x="1304" y="1349"/>
      <point x="1150" y="1446"/>
      <point x="1021" y="1446" type="qcurve" smooth="yes"/>
      <point x="896" y="1446"/>
      <point x="734" y="1285"/>
      <point x="714" y="1173" type="qcurve" smooth="yes"/>
      <point x="677" y="973"/>
      <point x="858" y="803"/>
      <point x="1126" y="787" type="qcurve" smooth="yes"/>
      <point x="1495" y="765"/>
      <point x="1904" y="800"/>
      <point x="1989" y="869" type="qcurve"/>
      <point x="2023" y="821" type="line"/>
      <point x="2000" y="767"/>
      <point x="1849" y="614"/>
      <point x="1736" y="614" type="qcurve" smooth="yes"/>
      <point x="1599" y="614"/>
      <point x="1014" y="715"/>
      <point x="929" y="715" type="qcurve" smooth="yes"/>
      <point x="714" y="715"/>
      <point x="457" y="541"/>
      <point x="429" y="396" type="qcurve" smooth="yes"/>
      <point x="401" y="247"/>
      <point x="498" y="90"/>
      <point x="644" y="90" type="qcurve" smooth="yes"/>
      <point x="785" y="90"/>
      <point x="1011" y="266"/>
      <point x="1080" y="450" type="qcurve" smooth="yes"/>
      <point x="1174" y="727" type="line"/>
      <point x="1667" y="719" type="line"/>
      <point x="1564" y="398"/>
      <point x="1545" y="135"/>
      <point x="1580" y="15" type="qcurve"/>
    </contour>
  </outline>
</glyph>
<glyph name="parenleft" format="2">
  <advance width="905"/>
  <unicode hex="0028"/>
  <outline>
    <contour>
      <point x="37.0" y="706.0" type="qcurve" smooth="yes"/>
      <point x="73.0" y="972.0"/>
      <point x="591.0" y="1436.0"/>
      <point x="892.0" y="1540.0" type="qcurve"/>
      <point x="955.0" y="1507.0" type="line"/>
      <point x="783.0" y="1392.0"/>
      <point x="539.0" y="965.0"/>
      <point x="499.0" y="709.0" type="qcurve" smooth="yes"/>
      <point x="457.0" y="444.0"/>
      <point x="549.0" y="33.0"/>
      <point x="666.0" y="-90.0" type="qcurve"/>
      <point x="593.0" y="-135.0" type="line"/>
      <point x="321.0" y="-19.0"/>
      <point x="0.0" y="438.0"/>
    </contour>
  </outline>
</glyph>
<glyph name="parenright" format="2">
  <advance width="905"/>
  <unicode hex="0029"/>
  <outline>
    <contour>
      <point x="712.0" y="675.0" type="qcurve" smooth="yes"/>
      <point x="677.0" y="418.0"/>
      <point x="160.0" y="-57.0"/>
      <point x="-143.0" y="-161.0" type="qcurve"/>
      <point x="-208.0" y="-128.0" type="line"/>
      <point x="-46.0" y="-7.0"/>
      <point x="208.0" y="411.0"/>
      <point x="250.0" y="672.0" type="qcurve" smooth="yes"/>
      <point x="292.0" y="932.0"/>
      <point x="212.0" y="1350.0"/>
      <point x="85.0" y="1471.0" type="qcurve"/>
      <point x="156.0" y="1516.0" type="line"/>
      <point x="428.0" y="1400.0"/>
      <point x="750.0" y="954.0"/>
    </contour>
  </outline>
</glyph>
<glyph name="asterisk" format="2">
  <advance width="944"/>
  <unicode hex="002A"/>
  <outline>
    <contour>
      <point x="349" y="783" type="qcurve" smooth="yes"/>
      <point x="316" y="796"/>
      <point x="257" y="861"/>
      <point x="289" y="901" type="qcurve" smooth="yes"/>
      <point x="486" y="1150" type="line"/>
      <point x="486" y="1153" type="line"/>
      <point x="206" y="1012" type="line" smooth="yes"/>
      <point x="163" y="990"/>
      <point x="93" y="1067"/>
      <point x="87" y="1105" type="qcurve" smooth="yes"/>
      <point x="82" y="1142"/>
      <point x="132" y="1227"/>
      <point x="176" y="1221" type="qcurve" smooth="yes"/>
      <point x="481" y="1171" type="line"/>
      <point x="482" y="1173" type="line"/>
      <point x="224" y="1351" type="line" smooth="yes"/>
      <point x="185" y="1377"/>
      <point x="222" y="1469"/>
      <point x="250" y="1493" type="qcurve" smooth="yes"/>
      <point x="277" y="1516"/>
      <point x="372" y="1532"/>
      <point x="387" y="1487" type="qcurve" smooth="yes"/>
      <point x="493" y="1188" type="line"/>
      <point x="496" y="1189" type="line"/>
      <point x="515" y="1511" type="line" smooth="yes"/>
      <point x="517" y="1562"/>
      <point x="620" y="1576"/>
      <point x="650" y="1563" type="qcurve" smooth="yes"/>
      <point x="684" y="1549"/>
      <point x="743" y="1473"/>
      <point x="711" y="1434" type="qcurve" smooth="yes"/>
      <point x="512" y="1184" type="line"/>
      <point x="513" y="1180" type="line"/>
      <point x="791" y="1322" type="line" smooth="yes"/>
      <point x="834" y="1344"/>
      <point x="901" y="1275"/>
      <point x="906" y="1237" type="qcurve" smooth="yes"/>
      <point x="911" y="1200"/>
      <point x="868" y="1106"/>
      <point x="823" y="1115" type="qcurve" smooth="yes"/>
      <point x="519" y="1163" type="line"/>
      <point x="517" y="1160" type="line"/>
      <point x="767" y="994" type="line" smooth="yes"/>
      <point x="808" y="967"/>
      <point x="767" y="868"/>
      <point x="738" y="843" type="qcurve" smooth="yes"/>
      <point x="710" y="819"/>
      <point x="610" y="821"/>
      <point x="595" y="867" type="qcurve" smooth="yes"/>
      <point x="506" y="1147" type="line"/>
      <point x="503" y="1145" type="line"/>
      <point x="484" y="824" type="line" smooth="yes"/>
      <point x="482" y="772"/>
      <point x="382" y="769"/>
    </contour>
  </outline>
</glyph>
<glyph name="three" format="2">
  <advance width="1273"/>
  <unicode hex="0033"/>
  <outline>
    <contour>
      <point x="-189" y="258" type="qcurve" smooth="yes"/>
      <point x="-188" y="333"/>
      <point x="-92" y="420"/>
      <point x="-21" y="415" type="qcurve" smooth="yes"/>
      <point x="34" y="411" type="line"/>
      <point x="27" y="383"/>
      <point x="23" y="318"/>
      <point x="23" y="275" type="qcurve" smooth="yes"/>
      <point x="23" y="176"/>
      <point x="163" y="57"/>
      <point x="293" y="55" type="qcurve" smooth="yes"/>
      <point x="461" y="53"/>
      <point x="629" y="272"/>
      <point x="647" y="449" type="qcurve" smooth="yes"/>
      <point x="664" y="623"/>
      <point x="492" y="764"/>
      <point x="323" y="767" type="qcurve" smooth="yes"/>
      <point x="201" y="769" type="line"/>
      <point x="204" y="847" type="line"/>
      <point x="284" y="847" type="line" smooth="yes"/>
      <point x="487" y="847"/>
      <point x="697" y="1028"/>
      <point x="711" y="1147" type="qcurve" smooth="yes"/>
      <point x="723" y="1247"/>
      <point x="632" y="1356"/>
      <point x="523" y="1356" type="qcurve" smooth="yes"/>
      <point x="426" y="1356"/>
      <point x="204" y="1250"/>
      <point x="131" y="1175" type="qcurve"/>
      <point x="76" y="1244" type="line"/>
      <point x="166" y="1351"/>
      <point x="521" y="1526"/>
      <point x="776" y="1526" type="qcurve" smooth="yes"/>
      <point x="998" y="1526"/>
      <point x="1222" y="1350"/>
      <point x="1206" y="1189" type="qcurve" smooth="yes"/>
      <point x="1191" y="1038"/>
      <point x="909" y="857"/>
      <point x="679" y="826" type="qcurve"/>
      <point x="678" y="819" type="line"/>
      <point x="893" y="804"/>
      <point x="1182" y="614"/>
      <point x="1168" y="421" type="qcurve" smooth="yes"/>
      <point x="1155" y="234"/>
      <point x="728" y="-23"/>
      <point x="379" y="-23" type="qcurve" smooth="yes"/>
      <point x="92.0" y="-23"/>
      <point x="-191" y="137"/>
    </contour>
  </outline>
</glyph>
<glyph name="six" format="2">
  <advance width="1527"/>
  <unicode hex="0036"/>
  <outline>
    <contour>
      <point x="-31" y="564" type="qcurve" smooth="yes"/>
      <point x="-17" y="931"/>
      <point x="847" y="1515"/>
      <point x="1415" y="1580" type="qcurve"/>
      <point x="1439" y="1515" type="line"/>
      <point x="1000" y="1433"/>
      <point x="483" y="857"/>
      <point x="459" y="497" type="qcurve" smooth="yes"/>
      <point x="441" y="215"/>
      <point x="530" y="57"/>
      <point x="628" y="57" type="qcurve" smooth="yes"/>
      <point x="758" y="57"/>
      <point x="904" y="318"/>
      <point x="920" y="488" type="qcurve" smooth="yes"/>
      <point x="934" y="639"/>
      <point x="834" y="767"/>
      <point x="745" y="767" type="qcurve" smooth="yes"/>
      <point x="701" y="767"/>
      <point x="625" y="748"/>
      <point x="587" y="730" type="qcurve"/>
      <point x="568" y="793" type="line"/>
      <point x="629" y="830"/>
      <point x="855" y="900"/>
      <point x="956" y="900" type="qcurve" smooth="yes"/>
      <point x="1176" y="900"/>
      <point x="1434" y="703"/>
      <point x="1421" y="501" type="qcurve" smooth="yes"/>
      <point x="1407" y="281"/>
      <point x="929" y="-19"/>
      <point x="592" y="-19" type="qcurve" smooth="yes"/>
      <point x="370" y="-19"/>
      <point x="-41" y="280"/>
    </contour>
  </outline>
</glyph>
<glyph name="seven" format="2">
  <advance width="1362"/>
  <unicode hex="0037"/>
  <outline>
    <contour>
      <point x="-26.0" y="1016.0" type="line"/>
      <point x="98.0" y="1500.0" type="line"/>
      <point x="1462.0" y="1500.0" type="line"/>
      <point x="1492.0" y="1444.0" type="line"/>
      <point x="1201.0" y="1194.0"/>
      <point x="656.0" y="493.0"/>
      <point x="574.0" y="105.0" type="qcurve"/>
      <point x="198.0" y="-31.0" type="line"/>
      <point x="146.0" y="15.0" type="line"/>
      <point x="308.0" y="450.0"/>
      <point x="826.0" y="997.0"/>
      <point x="1059.0" y="1118.0" type="qcurve"/>
      <point x="1053.0" y="1123.0" type="line"/>
      <point x="86.0" y="1117.0" type="line"/>
      <point x="54.0" y="1016.0" type="line"/>
    </contour>
  </outline>
</glyph>
<glyph name="eight" format="2">
  <advance width="1443"/>
  <unicode hex="0038"/>
  <outline>
    <contour>
      <point x="-94" y="352" type="qcurve" smooth="yes"/>
      <point x="-76" y="527"/>
      <point x="270" y="750"/>
      <point x="615" y="841" type="qcurve"/>
      <point x="705" y="796" type="line"/>
      <point x="495" y="730"/>
      <point x="262" y="570"/>
      <point x="238" y="411" type="qcurve" smooth="yes"/>
      <point x="216" y="264"/>
      <point x="394" y="51"/>
      <point x="614" y="49" type="qcurve" smooth="yes"/>
      <point x="769" y="47"/>
      <point x="969" y="192"/>
      <point x="973" y="291" type="qcurve" smooth="yes"/>
      <point x="976" y="389"/>
      <point x="728" y="556"/>
      <point x="537" y="667" type="qcurve" smooth="yes"/>
      <point x="321" y="793"/>
      <point x="185" y="1030"/>
      <point x="198" y="1146" type="qcurve" smooth="yes"/>
      <point x="215" y="1305"/>
      <point x="492" y="1537"/>
      <point x="843" y="1533" type="qcurve" smooth="yes"/>
      <point x="1140" y="1530"/>
      <point x="1400" y="1344"/>
      <point x="1386" y="1194" type="qcurve" smooth="yes"/>
      <point x="1372" y="1062"/>
      <point x="1111" y="916"/>
      <point x="801" y="824" type="qcurve"/>
      <point x="718" y="871" type="line"/>
      <point x="909" y="960"/>
      <point x="1085" y="1121"/>
      <point x="1090" y="1250" type="qcurve" smooth="yes"/>
      <point x="1093" y="1336"/>
      <point x="966" y="1453"/>
      <point x="836" y="1454" type="qcurve" smooth="yes"/>
      <point x="712" y="1455"/>
      <point x="570" y="1368"/>
      <point x="567" y="1282" type="qcurve" smooth="yes"/>
      <point x="565" y="1217"/>
      <point x="750" y="1057"/>
      <point x="967" y="932" type="qcurve" smooth="yes"/>
      <point x="1185" y="805"/>
      <point x="1362" y="552"/>
      <point x="1348" y="397" type="qcurve" smooth="yes"/>
      <point x="1330" y="201"/>
      <point x="930" y="-25"/>
      <point x="549" y="-21" type="qcurve" smooth="yes"/>
      <point x="203" y="-17"/>
      <point x="-110" y="194"/>
    </contour>
  </outline>
</glyph>
<glyph name="nine" format="2">
  <advance width="1527"/>
  <unicode hex="0039"/>
  <outline>
    <contour>
      <point x="-8" y="-68" type="qcurve"/>
      <point x="-33" y="-2" type="line"/>
      <point x="406" y="80"/>
      <point x="924" y="655"/>
      <point x="948" y="1015" type="qcurve" smooth="yes"/>
      <point x="966" y="1297"/>
      <point x="877" y="1448"/>
      <point x="779" y="1448" type="qcurve" smooth="yes"/>
      <point x="649" y="1448"/>
      <point x="503" y="1194"/>
      <point x="487" y="1024" type="qcurve" smooth="yes"/>
      <point x="473" y="873"/>
      <point x="573" y="735"/>
      <point x="662" y="735" type="qcurve" smooth="yes"/>
      <point x="706" y="735"/>
      <point x="782" y="759"/>
      <point x="820" y="782" type="qcurve"/>
      <point x="839" y="719" type="line"/>
      <point x="778" y="682"/>
      <point x="552" y="612"/>
      <point x="451" y="612" type="qcurve" smooth="yes"/>
      <point x="231" y="612"/>
      <point x="-27" y="809"/>
      <point x="-14" y="1011" type="qcurve" smooth="yes"/>
      <point x="0" y="1231"/>
      <point x="478" y="1531"/>
      <point x="815" y="1531" type="qcurve" smooth="yes"/>
      <point x="1037" y="1531"/>
      <point x="1448" y="1232"/>
      <point x="1438" y="948" type="qcurve" smooth="yes"/>
      <point x="1424" y="581"/>
      <point x="560" y="-3"/>
    </contour>
  </outline>
</glyph>
<glyph name="semicolon" format="2">
  <advance width="639"/>
  <unicode hex="003B"/>
  <outline>
    <contour>
      <point x="49" y="730" type="qcurve" smooth="yes"/>
      <point x="49" y="812"/>
      <point x="168" y="931"/>
      <point x="261" y="931" type="qcurve" smooth="yes"/>
      <point x="353" y="931"/>
      <point x="474" y="812"/>
      <point x="474" y="730" type="qcurve" smooth="yes"/>
      <point x="474" y="649"/>
      <point x="353" y="529"/>
      <point x="261" y="529" type="qcurve" smooth="yes"/>
      <point x="168" y="529"/>
      <point x="49" y="649"/>
    </contour>
    <contour>
      <point x="-33" y="-292" type="line"/>
      <point x="57" y="-219"/>
      <point x="183" y="-79"/>
      <point x="214" y="-18" type="qcurve"/>
      <point x="95" y="-20"/>
      <point x="-37" y="90"/>
      <point x="-37" y="186" type="qcurve" smooth="yes"/>
      <point x="-37" y="266"/>
      <point x="83" y="389"/>
      <point x="174" y="389" type="qcurve" smooth="yes"/>
      <point x="268" y="389"/>
      <point x="388" y="285"/>
      <point x="388" y="155" type="qcurve" smooth="yes"/>
      <point x="388" y="6"/>
      <point x="186" y="-249"/>
      <point x="3" y="-344" type="qcurve"/>
    </contour>
  </outline>
</glyph>
<glyph name="equal" format="2">
  <advance width="1152"/>
  <unicode hex="003D"/>
  <outline>
    <contour>
      <point x="41.0" y="330.0" type="line"/>
      <point x="41.0" y="560.0" type="line"/>
      <point x="487.0" y="557.0" type="line"/>
      <point x="937.0" y="560.0" type="line"/>
      <point x="937.0" y="330.0" type="line"/>
      <point x="487.0" y="333.0" type="line"/>
    </contour>
    <contour>
      <point x="41.0" y="702.0" type="line"/>
      <point x="41.0" y="932.0" type="line"/>
      <point x="487.0" y="929.0" type="line"/>
      <point x="937.0" y="932.0" type="line"/>
      <point x="937.0" y="702.0" type="line"/>
      <point x="487.0" y="705.0" type="line"/>
    </contour>
  </outline>
</glyph>
<glyph name="question" format="2">
  <advance width="1412"/>
  <unicode hex="003F"/>
  <outline>
    <contour>
      <point x="189.0" y="1225.0" type="qcurve" smooth="yes"/>
      <point x="210.0" y="1359.0"/>
      <point x="524.0" y="1521.0"/>
      <point x="800" y="1521.0" type="qcurve" smooth="yes"/>
      <point x="1079.0" y="1521.0"/>
      <point x="1330.0" y="1319.0"/>
      <point x="1305.0" y="1163.0" type="qcurve" smooth="yes"/>
      <point x="1277" y="990"/>
      <point x="1087" y="837"/>
      <point x="993.0" y="804.0" type="qcurve" smooth="yes"/>
      <point x="753.0" y="721.0"/>
      <point x="435.0" y="605.0"/>
      <point x="411.0" y="523.0" type="qcurve" smooth="yes"/>
      <point x="396.0" y="466.0" type="line"/>
      <point x="296.0" y="476.0" type="line"/>
      <point x="302.0" y="560.0" type="line" smooth="yes"/>
      <point x="307.0" y="670.0"/>
      <point x="451.0" y="856.0"/>
      <point x="729.0" y="990.0" type="qcurve" smooth="yes"/>
      <point x="814" y="1031"/>
      <point x="911" y="1126"/>
      <point x="918.0" y="1222.0" type="qcurve" smooth="yes"/>
      <point x="925.0" y="1321.0"/>
      <point x="789.0" y="1421.0"/>
      <point x="666.0" y="1421.0" type="qcurve" smooth="yes"/>
      <point x="553.0" y="1421.0"/>
      <point x="405.0" y="1355.0"/>
      <point x="391.0" y="1287.0" type="qcurve" smooth="yes"/>
      <point x="384.0" y="1256.0"/>
      <point x="455.0" y="1193.0"/>
      <point x="462.0" y="1134.0" type="qcurve" smooth="yes"/>
      <point x="467.0" y="1087.0"/>
      <point x="376.0" y="1031.0"/>
      <point x="311.0" y="1031.0" type="qcurve" smooth="yes"/>
      <point x="246.0" y="1031.0"/>
      <point x="175.0" y="1130.0"/>
    </contour>
    <contour>
      <point x="112.0" y="175.0" type="qcurve" smooth="yes"/>
      <point x="116.0" y="264.0"/>
      <point x="233.0" y="372.0"/>
      <point x="323.0" y="372.0" type="qcurve" smooth="yes"/>
      <point x="407.0" y="372.0"/>
      <point x="517.0" y="260.0"/>
      <point x="510.0" y="175.0" type="qcurve" smooth="yes"/>
      <point x="506.0" y="86.0"/>
      <point x="388.0" y="-20.0"/>
      <point x="298.0" y="-20.0" type="qcurve" smooth="yes"/>
      <point x="214.0" y="-20.0"/>
      <point x="106.0" y="90.0"/>
    </contour>
  </outline>
</glyph>
<glyph name="D" format="2">
  <advance width="1986"/>
  <unicode hex="0044"/>
  <outline>
    <contour>
      <point x="-129" y="0" type="line"/>
      <point x="-120" y="55" type="line"/>
      <point x="10" y="74" type="line"/>
      <point x="175" y="811" type="line"/>
      <point x="307" y="1432" type="line"/>
      <point x="156" y="1441" type="line"/>
      <point x="164" y="1500" type="line"/>
      <point x="1139" y="1500" type="line" smooth="yes"/>
      <point x="1505" y="1500"/>
      <point x="1910" y="1103"/>
      <point x="1844" y="751" type="qcurve" smooth="yes"/>
      <point x="1775" y="382"/>
      <point x="1261" y="0"/>
      <point x="844" y="0" type="qcurve" smooth="yes"/>
    </contour>
    <contour>
      <point x="506" y="66" type="line"/>
      <point x="528" y="59"/>
      <point x="679" y="50"/>
      <point x="732" y="50.0" type="qcurve" smooth="yes"/>
      <point x="1001" y="50.0"/>
      <point x="1256" y="411"/>
      <point x="1325" y="775" type="qcurve" smooth="yes"/>
      <point x="1389" y="1115"/>
      <point x="1185" y="1450"/>
      <point x="971" y="1450" type="qcurve" smooth="yes"/>
      <point x="929" y="1450"/>
      <point x="841" y="1445"/>
      <point x="806" y="1441" type="qcurve"/>
      <point x="655" y="759" type="line"/>
    </contour>
  </outline>
</glyph>
<glyph name="E" format="2">
  <advance width="1692"/>
  <unicode hex="0045"/>
  <outline>
    <contour>
      <point x="-130.0" y="0.0" type="line"/>
      <point x="-121.0" y="55.0" type="line"/>
      <point x="8.0" y="71.0" type="line"/>
      <point x="174.0" y="807.0" type="line"/>
      <point x="305.0" y="1429.0" type="line"/>
      <point x="157.0" y="1445.0" type="line"/>
      <point x="165.0" y="1500.0" type="line"/>
      <point x="1649.0" y="1500.0" type="line"/>
      <point x="1571.0" y="1167.0" type="line"/>
      <point x="1486.0" y="1167.0" type="line"/>
      <point x="1458.0" y="1444.0" type="line"/>
      <point x="817.0" y="1444.0" type="line"/>
      <point x="788.0" y="1422.0" type="line"/>
      <point x="655.0" y="773.0" type="line"/>
      <point x="508.0" y="94.0" type="line"/>
      <point x="539.0" y="56.0" type="line"/>
      <point x="1186.0" y="56.0" type="line"/>
      <point x="1407.0" y="373.0" type="line"/>
      <point x="1499.0" y="373.0" type="line"/>
      <point x="1370.0" y="0.0" type="line"/>
    </contour>
    <contour>
      <point x="412.0" y="729.0" type="line"/>
      <point x="425.0" y="782.0" type="line"/>
      <point x="1245.0" y="796.0" type="line"/>
      <point x="1359.0" y="955.0" type="line"/>
      <point x="1435.0" y="955.0" type="line"/>
      <point x="1348.0" y="551.0" type="line"/>
      <point x="1268.0" y="551.0" type="line"/>
      <point x="1235.0" y="733.0" type="line"/>
    </contour>
  </outline>
</glyph>
<glyph name="F" format="2">
  <advance width="1549"/>
  <unicode hex="0046"/>
  <outline>
    <contour>
      <point x="-132" y="0" type="line"/>
      <point x="-123" y="55" type="line"/>
      <point x="9" y="73" type="line"/>
      <point x="175" y="813" type="line"/>
      <point x="301" y="1431" type="line"/>
      <point x="154" y="1442" type="line"/>
      <point x="163" y="1500" type="line"/>
      <point x="1556" y="1500" type="line"/>
      <point x="1508" y="1167" type="line"/>
      <point x="1427" y="1167" type="line"/>
      <point x="1371" y="1445" type="line"/>
      <point x="832" y="1445" type="line"/>
      <point x="789" y="1423" type="line"/>
      <point x="651" y="767" type="line"/>
      <point x="505" y="72" type="line"/>
      <point x="695" y="55" type="line"/>
      <point x="684" y="0" type="line"/>
    </contour>
    <contour>
      <point x="398" y="703" type="line"/>
      <point x="410" y="750" type="line"/>
      <point x="1159" y="760" type="line"/>
      <point x="1266" y="930" type="line"/>
      <point x="1336" y="930" type="line"/>
      <point x="1248" y="507" type="line"/>
      <point x="1178" y="507" type="line"/>
      <point x="1144" y="691" type="line"/>
    </contour>
  </outline>
</glyph>
<glyph name="K" format="2">
  <advance width="1959"/>
  <unicode hex="004B"/>
  <outline>
    <contour>
      <point x="-131" y="0" type="line"/>
      <point x="-122" y="55" type="line"/>
      <point x="7" y="70" type="line"/>
      <point x="171" y="790" type="line"/>
      <point x="305" y="1429" type="line"/>
      <point x="155" y="1441" type="line"/>
      <point x="163" y="1500" type="line"/>
      <point x="948" y="1500" type="line"/>
      <point x="938" y="1441" type="line"/>
      <point x="793" y="1429" type="line"/>
      <point x="659" y="773" type="line"/>
      <point x="505" y="73" type="line"/>
      <point x="657" y="55" type="line"/>
      <point x="645" y="0" type="line"/>
    </contour>
    <contour>
      <point x="499" y="530" type="line"/>
      <point x="509" y="611" type="line"/>
      <point x="1647" y="1421" type="line"/>
      <point x="1414" y="1442" type="line"/>
      <point x="1428" y="1500" type="line"/>
      <point x="1984" y="1500" type="line"/>
      <point x="1970" y="1442" type="line"/>
      <point x="1757" y="1420" type="line"/>
    </contour>
    <contour>
      <point x="744" y="739" type="line"/>
      <point x="1133" y="1008" type="line"/>
      <point x="1788" y="71" type="line"/>
      <point x="1935" y="55" type="line"/>
      <point x="1926" y="0" type="line"/>
      <point x="1069" y="0" type="line"/>
      <point x="1082" y="55" type="line"/>
      <point x="1215" y="69" type="line"/>
    </contour>
  </outline>
</glyph>
<glyph name="S" format="2">
  <advance width="1552"/>
  <unicode hex="0053"/>
  <outline>
    <contour>
      <point x="-179" y="4" type="line"/>
      <point x="-75" y="451" type="line"/>
      <point x="18" y="451" type="line"/>
      <point x="29" y="298" type="line" smooth="yes"/>
      <point x="38" y="169"/>
      <point x="347" y="32"/>
      <point x="562" y="32" type="qcurve" smooth="yes"/>
      <point x="731" y="32"/>
      <point x="947" y="113"/>
      <point x="977" y="210" type="qcurve" smooth="yes"/>
      <point x="1009" y="314"/>
      <point x="874" y="484"/>
      <point x="565" y="593" type="qcurve" smooth="yes"/>
      <point x="238" y="708"/>
      <point x="78" y="1014"/>
      <point x="120" y="1182" type="qcurve" smooth="yes"/>
      <point x="163" y="1351"/>
      <point x="498" y="1529"/>
      <point x="813" y="1529" type="qcurve" smooth="yes"/>
      <point x="1013" y="1529"/>
      <point x="1294" y="1462"/>
      <point x="1362" y="1427" type="qcurve"/>
      <point x="1431" y="1505" type="line"/>
      <point x="1505" y="1494" type="line"/>
      <point x="1410" y="1080" type="line"/>
      <point x="1324" y="1080" type="line"/>
      <point x="1312" y="1230" type="line" smooth="yes"/>
      <point x="1302" y="1351"/>
      <point x="1059" y="1463"/>
      <point x="858" y="1463" type="qcurve" smooth="yes"/>
      <point x="699" y="1463"/>
      <point x="505" y="1369"/>
      <point x="486" y="1268" type="qcurve" smooth="yes"/>
      <point x="466" y="1162"/>
      <point x="613" y="1026"/>
      <point x="911" y="921" type="qcurve" smooth="yes"/>
      <point x="1253" y="800"/>
      <point x="1442" y="531"/>
      <point x="1392" y="355" type="qcurve" smooth="yes"/>
      <point x="1340" y="173"/>
      <point x="991" y="-32"/>
      <point x="623" y="-32" type="qcurve" smooth="yes"/>
      <point x="386" y="-32"/>
      <point x="59" y="59"/>
      <point x="-8" y="97" type="qcurve"/>
      <point x="-98" y="-15" type="line"/>
    </contour>
  </outline>
</glyph>
<glyph name="bracketleft" format="2">
  <advance width="934"/>
  <unicode hex="005B"/>
  <outline>
    <contour>
      <point x="105" y="711" type="line"/>
      <point x="263" y="1440" type="line"/>
      <point x="237" y="1470" type="line"/>
      <point x="254" y="1500" type="line"/>
      <point x="988" y="1500" type="line"/>
      <point x="980" y="1450" type="line"/>
      <point x="699" y="1443" type="line"/>
      <point x="526" y="710" type="line"/>
      <point x="348" y="-90" type="line"/>
      <point x="656" y="-101" type="line"/>
      <point x="646" y="-147" type="line"/>
      <point x="-122" y="-150" type="line"/>
      <point x="-109" y="-109" type="line"/>
      <point x="-77" y="-99" type="line"/>
    </contour>
  </outline>
</glyph>
<glyph name="backslash" format="2">
  <advance width="797"/>
  <unicode hex="005C"/>
  <outline>
    <contour>
      <point x="141.0" y="1558.0" type="line"/>
      <point x="370.0" y="1567.0" type="line"/>
      <point x="546.0" y="-147.0" type="line"/>
      <point x="319.0" y="-161.0" type="line"/>
    </contour>
  </outline>
</glyph>
<glyph name="bracketright" format="2">
  <advance width="934"/>
  <unicode hex="005D"/>
  <outline>
    <contour>
      <point x="-202" y="-150" type="line"/>
      <point x="-194" y="-100" type="line"/>
      <point x="87" y="-93" type="line"/>
      <point x="260" y="640" type="line"/>
      <point x="438" y="1440" type="line"/>
      <point x="130" y="1451" type="line"/>
      <point x="140" y="1497" type="line"/>
      <point x="908" y="1500" type="line"/>
      <point x="895" y="1459" type="line"/>
      <point x="863" y="1449" type="line"/>
      <point x="681" y="639" type="line"/>
      <point x="523" y="-90" type="line"/>
      <point x="549" y="-120" type="line"/>
      <point x="532" y="-150" type="line"/>
    </contour>
  </outline>
</glyph>
<glyph name="asciicircum" format="2">
  <advance width="1199"/>
  <unicode hex="005E"/>
  <outline>
    <contour>
      <point x="192" y="1010" type="line"/>
      <point x="316" y="1146"/>
      <point x="657" y="1523"/>
      <point x="737" y="1523" type="qcurve" smooth="yes"/>
      <point x="799" y="1523"/>
      <point x="984" y="1115"/>
      <point x="1038" y="1011" type="qcurve"/>
      <point x="979" y="959" type="line"/>
      <point x="892" y="1036"/>
      <point x="671" y="1200"/>
      <point x="671" y="1200" type="qcurve"/>
      <point x="671" y="1200"/>
      <point x="359" y="1016"/>
      <point x="243" y="958" type="qcurve"/>
    </contour>
  </outline>
</glyph>
<glyph name="b" format="2">
  <advance width="1800"/>
  <unicode hex="0062"/>
  <outline>
    <contour>
      <point x="44" y="395" type="qcurve" smooth="yes"/>
      <point x="89" y="594" type="line"/>
      <point x="252" y="1400" type="line"/>
      <point x="63" y="1388" type="line"/>
      <point x="72" y="1466" type="line"/>
      <point x="693" y="1531" type="line"/>
      <point x="723" y="1468" type="line"/>
      <point x="525" y="556" type="line"/>
      <point x="460" y="233" type="line" smooth="yes"/>
      <point x="435" y="111"/>
      <point x="572" y="23"/>
      <point x="690" y="25" type="qcurve" smooth="yes"/>
      <point x="890" y="29"/>
      <point x="1128" y="416"/>
      <point x="1128" y="594" type="qcurve" smooth="yes"/>
      <point x="1128" y="702"/>
      <point x="1023" y="832"/>
      <point x="915" y="832" type="qcurve" smooth="yes"/>
      <point x="814" y="832"/>
      <point x="633" y="751"/>
      <point x="510" y="670" type="qcurve"/>
      <point x="492" y="719" type="line"/>
      <point x="666" y="854"/>
      <point x="1045" y="989"/>
      <point x="1263" y="989" type="qcurve" smooth="yes"/>
      <point x="1431" y="989"/>
      <point x="1627" y="797"/>
      <point x="1627" y="641" type="qcurve" smooth="yes"/>
      <point x="1627" y="356"/>
      <point x="1054" y="-19"/>
      <point x="640" y="-19" type="qcurve" smooth="yes"/>
      <point x="250" y="-19"/>
      <point x="-1" y="198"/>
    </contour>
  </outline>
</glyph>
<glyph name="e" format="2">
  <advance width="1554"/>
  <unicode hex="0065"/>
  <outline>
    <contour>
      <point x="-60" y="483" type="qcurve" smooth="yes"/>
      <point x="-38" y="706"/>
      <point x="437" y="1015"/>
      <point x="844" y="1015" type="qcurve" smooth="yes"/>
      <point x="1070" y="1015"/>
      <point x="1340" y="895"/>
      <point x="1375" y="779" type="qcurve" smooth="yes"/>
      <point x="1386" y="742"/>
      <point x="1392" y="659"/>
      <point x="1394" y="617" type="qcurve"/>
      <point x="1446" y="611" type="line"/>
      <point x="1423" y="532" type="line"/>
      <point x="1350" y="536"/>
      <point x="1096" y="539"/>
      <point x="992" y="538" type="qcurve" smooth="yes"/>
      <point x="401" y="532" type="line"/>
      <point x="401" y="600" type="line"/>
      <point x="946" y="607" type="line"/>
      <point x="955" y="637"/>
      <point x="966" y="716"/>
      <point x="969" y="765" type="qcurve" smooth="yes"/>
      <point x="973" y="839"/>
      <point x="897" y="946"/>
      <point x="815" y="946" type="qcurve" smooth="yes"/>
      <point x="700" y="946"/>
      <point x="468" y="713"/>
      <point x="433" y="508" type="qcurve" smooth="yes"/>
      <point x="401" y="323"/>
      <point x="520" y="84"/>
      <point x="717" y="73" type="qcurve" smooth="yes"/>
      <point x="912" y="62"/>
      <point x="1228" y="208"/>
      <point x="1324" y="304" type="qcurve"/>
      <point x="1346" y="280" type="line"/>
      <point x="1348" y="243" type="line"/>
      <point x="1246" y="128"/>
      <point x="887" y="-27"/>
      <point x="624" y="-23" type="qcurve" smooth="yes"/>
      <point x="283" y="-18"/>
      <point x="-82" y="260"/>
    </contour>
  </outline>
</glyph>
<glyph name="s" format="2">
  <advance width="1390"/>
  <unicode hex="0073"/>
  <outline>
    <contour>
      <point x="-100" y="185" type="qcurve" smooth="yes"/>
      <point x="-100" y="267"/>
      <point x="-2" y="343"/>
      <point x="69" y="340" type="qcurve" smooth="yes"/>
      <point x="145" y="337" type="line"/>
      <point x="145" y="216" type="line" smooth="yes"/>
      <point x="145" y="122"/>
      <point x="361" y="20"/>
      <point x="589" y="20" type="qcurve" smooth="yes"/>
      <point x="784" y="20"/>
      <point x="929" y="100"/>
      <point x="930" y="147" type="qcurve" smooth="yes"/>
      <point x="931" y="196"/>
      <point x="789" y="247"/>
      <point x="501" y="299" type="qcurve" smooth="yes"/>
      <point x="219" y="350"/>
      <point x="47" y="521"/>
      <point x="57" y="650" type="qcurve" smooth="yes"/>
      <point x="68" y="800"/>
      <point x="359" y="1013"/>
      <point x="706" y="1013" type="qcurve" smooth="yes"/>
      <point x="991" y="1013"/>
      <point x="1309" y="896"/>
      <point x="1310" y="808" type="qcurve" smooth="yes"/>
      <point x="1311" y="735"/>
      <point x="1199" y="653"/>
      <point x="1083" y="649" type="qcurve"/>
      <point x="1041" y="680" type="line"/>
      <point x="1039" y="824" type="line" smooth="yes"/>
      <point x="1038" y="872"/>
      <point x="872" y="967"/>
      <point x="680" y="967" type="qcurve" smooth="yes"/>
      <point x="512" y="967"/>
      <point x="385" y="889"/>
      <point x="385" y="840" type="qcurve" smooth="yes"/>
      <point x="385" y="795"/>
      <point x="522" y="736"/>
      <point x="776" y="680" type="qcurve" smooth="yes"/>
      <point x="1042" y="621"/>
      <point x="1264" y="490"/>
      <point x="1259" y="350" type="qcurve" smooth="yes"/>
      <point x="1252" y="176"/>
      <point x="884" y="-33"/>
      <point x="538" y="-33" type="qcurve" smooth="yes"/>
      <point x="190" y="-33"/>
      <point x="-100" y="81"/>
    </contour>
  </outline>
</glyph>
<glyph name="w" format="2">
  <advance width="2368"/>
  <unicode hex="0077"/>
  <outline>
    <contour>
      <point x="-65" y="837" type="line"/>
      <point x="-62" y="893" type="line"/>
      <point x="373" y="989" type="line"/>
      <point x="551" y="972" type="line"/>
      <point x="579" y="567" type="line"/>
      <point x="611" y="145" type="line"/>
      <point x="752" y="261"/>
      <point x="1094" y="645"/>
      <point x="1142" y="751" type="qcurve"/>
      <point x="1217" y="744" type="line"/>
      <point x="1140" y="598"/>
      <point x="824" y="233"/>
      <point x="521" y="-6" type="qcurve"/>
      <point x="150" y="0" type="line"/>
      <point x="127" y="510" type="line"/>
      <point x="91" y="864" type="line"/>
    </contour>
    <contour>
      <point x="906" y="903" type="line"/>
      <point x="1309" y="991" type="line"/>
      <point x="1491" y="975" type="line"/>
      <point x="1525" y="542" type="line"/>
      <point x="1557" y="114" type="line"/>
      <point x="1808" y="266"/>
      <point x="2052" y="640"/>
      <point x="2057" y="723" type="qcurve" smooth="yes"/>
      <point x="2061" y="764"/>
      <point x="2040" y="852"/>
      <point x="1971" y="924" type="qcurve"/>
      <point x="1998" y="958"/>
      <point x="2075" y="989"/>
      <point x="2143" y="989" type="qcurve" smooth="yes"/>
      <point x="2244" y="983"/>
      <point x="2322" y="910"/>
      <point x="2316" y="849" type="qcurve" smooth="yes"/>
      <point x="2307" y="748"/>
      <point x="1886" y="242"/>
      <point x="1479" y="-4" type="qcurve"/>
      <point x="1104" y="3" type="line"/>
      <point x="1071" y="486" type="line"/>
      <point x="1035" y="874" type="line"/>
      <point x="908" y="848" type="line"/>
    </contour>
  </outline>
</glyph>
<glyph name="currency" format="2">
  <advance width="1271"/>
  <unicode hex="00A4"/>
  <outline>
    <contour>
      <point x="-36.0" y="771.0" type="qcurve" smooth="yes"/>
      <point x="-36.0" y="981.0"/>
      <point x="289.0" y="1277.0"/>
      <point x="550.0" y="1277.0" type="qcurve" smooth="yes"/>
      <point x="815.0" y="1277.0"/>
      <point x="1142.0" y="1001.0"/>
      <point x="1142.0" y="777.0" type="qcurve" smooth="yes"/>
      <point x="1142.0" y="567.0"/>
      <point x="821.0" y="264.0"/>
      <point x="557.0" y="264.0" type="qcurve" smooth="yes"/>
      <point x="294.0" y="264.0"/>
      <point x="-36.0" y="545.0"/>
    </contour>
    <contour>
      <point x="150.0" y="788.0" type="qcurve" smooth="yes"/>
      <point x="151.0" y="629.0"/>
      <point x="368.0" y="410.0"/>
      <point x="548.0" y="410.0" type="qcurve" smooth="yes"/>
      <point x="740.0" y="410.0"/>
      <point x="947.0" y="608.0"/>
      <point x="947.0" y="774.0" type="qcurve" smooth="yes"/>
      <point x="947.0" y="925.0"/>
      <point x="730.0" y="1124.0"/>
      <point x="550.0" y="1124.0" type="qcurve" smooth="yes"/>
      <point x="356.0" y="1124.0"/>
      <point x="149.0" y="945.0"/>
    </contour>
    <contour>
      <point x="174.0" y="1073.0" type="line"/>
      <point x="-165.0" y="1346.0" type="line"/>
      <point x="-97.0" y="1428.0" type="line"/>
      <point x="230.0" y="1141.0" type="line"/>
    </contour>
    <contour>
      <point x="955.0" y="1063.0" type="line"/>
      <point x="900.0" y="1132.0" type="line"/>
      <point x="1237.0" y="1438.0" type="line"/>
      <point x="1304.0" y="1355.0" type="line"/>
    </contour>
    <contour>
      <point x="178.0" y="462.0" type="line"/>
      <point x="233.0" y="394.0" type="line"/>
      <point x="-103.0" y="89.0" type="line"/>
      <point x="-171.0" y="170.0" type="line"/>
    </contour>
    <contour>
      <point x="957.0" y="462.0" type="line"/>
      <point x="1315.0" y="160.0" type="line"/>
      <point x="1248.0" y="78.0" type="line"/>
      <point x="902.0" y="393.0" type="line"/>
    </contour>
  </outline>
</glyph>
<glyph name="yen" format="2">
  <advance width="1687"/>
  <unicode hex="00A5"/>
  <outline>
    <contour>
      <point x="-30.0" y="1442.0" type="line"/>
      <point x="-15.0" y="1500.0" type="line"/>
      <point x="831.0" y="1500.0" type="line"/>
      <point x="816.0" y="1442.0" type="line"/>
      <point x="653.0" y="1400.0" type="line"/>
      <point x="779.0" y="1087.0" type="line"/>
      <point x="929.0" y="744.0" type="line"/>
      <point x="1195.0" y="1037.0" type="line"/>
      <point x="1487.0" y="1394.0" type="line"/>
      <point x="1309.0" y="1442.0" type="line"/>
      <point x="1324.0" y="1500.0" type="line"/>
      <point x="1875.0" y="1500.0" type="line"/>
      <point x="1859.0" y="1442.0" type="line"/>
      <point x="1619.0" y="1391.0" type="line"/>
      <point x="1297.0" y="1045.0" type="line"/>
      <point x="966.0" y="666.0" type="line"/>
      <point x="844.0" y="94.0" type="line"/>
      <point x="1031.0" y="57.0" type="line"/>
      <point x="1017.0" y="0.0" type="line"/>
      <point x="141.0" y="0.0" type="line"/>
      <point x="161.0" y="57.0" type="line"/>
      <point x="357.0" y="94.0" type="line"/>
      <point x="474.0" y="630.0" type="line"/>
      <point x="290.0" y="1048.0" type="line"/>
      <point x="120.0" y="1391.0" type="line"/>
    </contour>
    <contour>
      <point x="145.0" y="645.0" type="line"/>
      <point x="124.0" y="742.0" type="line"/>
      <point x="1363.0" y="742.0" type="line"/>
      <point x="1332.0" y="645.0" type="line"/>
    </contour>
    <contour>
      <point x="136.0" y="395.0" type="line"/>
      <point x="111.0" y="493.0" type="line"/>
      <point x="1247.0" y="493.0" type="line"/>
      <point x="1216.0" y="395.0" type="line"/>
    </contour>
  </outline>
</glyph>
<glyph name="section" format="2">
  <advance width="1246"/>
  <unicode hex="00A7"/>
  <outline>
    <contour>
      <point x="1006.0" y="133.0" type="qcurve" smooth="yes"/>
      <point x="976.0" y="-39.0"/>
      <point x="660.0" y="-206.0"/>
      <point x="451.0" y="-206.0" type="qcurve" smooth="yes"/>
      <point x="261.0" y="-206.0"/>
      <point x="-7.0" y="-87.0"/>
      <point x="-9.0" y="16.0" type="qcurve" smooth="yes"/>
      <point x="-9.0" y="65.0"/>
      <point x="38.0" y="158.0"/>
      <point x="74.0" y="188.0" type="qcurve"/>
      <point x="183.0" y="154.0" type="line"/>
      <point x="165.0" y="127.0"/>
      <point x="154.0" y="72.0"/>
      <point x="154.0" y="26.0" type="qcurve" smooth="yes"/>
      <point x="153.0" y="-22.0"/>
      <point x="303.0" y="-102.0"/>
      <point x="452.0" y="-102.0" type="qcurve" smooth="yes"/>
      <point x="589.0" y="-102.0"/>
      <point x="786.0" y="-6.0"/>
      <point x="803.0" y="78.0" type="qcurve" smooth="yes"/>
      <point x="819.0" y="147.0"/>
      <point x="701.0" y="310.0"/>
      <point x="495.0" y="392.0" type="qcurve" smooth="yes"/>
      <point x="305.0" y="467.0"/>
      <point x="147.0" y="632.0"/>
      <point x="182.0" y="777.0" type="qcurve" smooth="yes"/>
      <point x="201.0" y="854.0"/>
      <point x="353.0" y="989.0"/>
      <point x="450.0" y="1031.0" type="qcurve"/>
      <point x="388.0" y="1075.0"/>
      <point x="330.0" y="1196.0"/>
      <point x="346.0" y="1283.0" type="qcurve" smooth="yes"/>
      <point x="363.0" y="1383.0"/>
      <point x="581.0" y="1512.0"/>
      <point x="773.0" y="1512.0" type="qcurve" smooth="yes"/>
      <point x="930.0" y="1512.0"/>
      <point x="1102.0" y="1411.0"/>
      <point x="1102.0" y="1328.0" type="qcurve" smooth="yes"/>
      <point x="1102.0" y="1277.0"/>
      <point x="1060.0" y="1216.0"/>
      <point x="1036.0" y="1191.0" type="qcurve"/>
      <point x="941.0" y="1235.0" type="line"/>
      <point x="961.0" y="1256.0"/>
      <point x="976.0" y="1296.0"/>
      <point x="980.0" y="1323.0" type="qcurve"/>
      <point x="980.0" y="1379.0"/>
      <point x="866.0" y="1456.0"/>
      <point x="769.0" y="1456.0" type="qcurve" smooth="yes"/>
      <point x="662.0" y="1456.0"/>
      <point x="542.0" y="1363.0"/>
      <point x="527.0" y="1286.0" type="qcurve" smooth="yes"/>
      <point x="512.0" y="1213.0"/>
      <point x="617.0" y="1101.0"/>
      <point x="772.0" y="1066.0" type="qcurve" smooth="yes"/>
      <point x="948.0" y="1025.0"/>
      <point x="1116.0" y="876.0"/>
      <point x="1090.0" y="752.0" type="qcurve" smooth="yes"/>
      <point x="1070.0" y="653.0"/>
      <point x="883.0" y="523.0"/>
      <point x="760.0" y="495.0" type="qcurve"/>
      <point x="871.0" y="444.0"/>
      <point x="1029.0" y="266.0"/>
    </contour>
    <contour>
      <point x="340.0" y="822.0" type="qcurve" smooth="yes"/>
      <point x="325.0" y="759.0"/>
      <point x="489.0" y="618.0"/>
      <point x="639.0" y="566.0" type="qcurve"/>
      <point x="740.0" y="566.0"/>
      <point x="914.0" y="645.0"/>
      <point x="928.0" y="712.0" type="qcurve" smooth="yes"/>
      <point x="943.0" y="781.0"/>
      <point x="799.0" y="884.0"/>
      <point x="641.0" y="923.0" type="qcurve" smooth="yes"/>
      <point x="615.0" y="929.0"/>
      <point x="550.0" y="945.0"/>
      <point x="531.0" y="952.0" type="qcurve"/>
      <point x="470.0" y="937.0"/>
      <point x="350.0" y="870.0"/>
    </contour>
  </outline>
</glyph>
<glyph name="plusminus" format="2">
  <advance width="1152"/>
  <unicode hex="00B1"/>
  <outline>
    <contour>
      <point x="-23.0" y="675.0" type="line"/>
      <point x="-23.0" y="889.0" type="line"/>
      <point x="962.0" y="889.0" type="line"/>
      <point x="962.0" y="675.0" type="line"/>
    </contour>
    <contour>
      <point x="360.0" y="362.0" type="line"/>
      <point x="360.0" y="1124.0" type="line"/>
      <point x="579.0" y="1124.0" type="line"/>
      <point x="579.0" y="362.0" type="line"/>
    </contour>
    <contour>
      <point x="-23.0" y="0.0" type="line"/>
      <point x="-23.0" y="191.0" type="line"/>
      <point x="962.0" y="191.0" type="line"/>
      <point x="962.0" y="0.0" type="line"/>
    </contour>
  </outline>
</glyph>
<glyph name="cedilla" format="2">
  <advance width="896"/>
  <unicode hex="00B8"/>
  <outline>
    <contour>
      <point x="313.0" y="-6.0" type="line"/>
      <point x="233.0" y="-100.0" type="line"/>
      <point x="257.0" y="-86.0"/>
      <point x="363.0" y="-67.0"/>
      <point x="430.0" y="-67.0" type="qcurve" smooth="yes"/>
      <point x="543.0" y="-67.0"/>
      <point x="692.0" y="-156.0"/>
      <point x="693.0" y="-251.0" type="qcurve" smooth="yes"/>
      <point x="692.0" y="-357.0"/>
      <point x="469.0" y="-460.0"/>
      <point x="302.0" y="-460.0" type="qcurve" smooth="yes"/>
      <point x="186.0" y="-460.0"/>
      <point x="33.0" y="-400.0"/>
      <point x="-15.0" y="-340.0" type="qcurve"/>
      <point x="14.0" y="-335.0" type="line"/>
      <point x="67.0" y="-374.0"/>
      <point x="175.0" y="-406.0"/>
      <point x="289.0" y="-406.0" type="qcurve" smooth="yes"/>
      <point x="400.0" y="-406.0"/>
      <point x="512.0" y="-320.0"/>
      <point x="512.0" y="-265.0" type="qcurve" smooth="yes"/>
      <point x="508.0" y="-229.0"/>
      <point x="412.0" y="-144.0"/>
      <point x="353.0" y="-144.0" type="qcurve" smooth="yes"/>
      <point x="316.0" y="-144.0"/>
      <point x="218.0" y="-158.0"/>
      <point x="198.0" y="-167.0" type="qcurve"/>
      <point x="168.0" y="-131.0" type="line"/>
      <point x="281.0" y="10.0" type="line"/>
    </contour>
  </outline>
</glyph>
<glyph name="ordmasculine" format="2">
  <advance width="1293"/>
  <unicode hex="00BA"/>
  <outline>
    <contour>
      <point x="3.0" y="1178.0" type="qcurve" smooth="yes"/>
      <point x="37.0" y="1338.0"/>
      <point x="410.0" y="1507.0"/>
      <point x="662.0" y="1502.0" type="qcurve" smooth="yes"/>
      <point x="918.0" y="1497.0"/>
      <point x="1168.0" y="1237.0"/>
      <point x="1148.0" y="1100.0" type="qcurve" smooth="yes"/>
      <point x="1119.0" y="936.0"/>
      <point x="756.0" y="750.0"/>
      <point x="484.0" y="755.0" type="qcurve" smooth="yes"/>
      <point x="223.0" y="758.0"/>
      <point x="-34.0" y="1026.0"/>
    </contour>
    <contour>
      <point x="356.0" y="1152.0" type="qcurve" smooth="yes"/>
      <point x="335.0" y="1027.0"/>
      <point x="386.0" y="807.0"/>
      <point x="516.0" y="801.0" type="qcurve" smooth="yes"/>
      <point x="657.0" y="797.0"/>
      <point x="784.0" y="986.0"/>
      <point x="803.0" y="1125.0" type="qcurve" smooth="yes"/>
      <point x="817.0" y="1246.0"/>
      <point x="764.0" y="1447.0"/>
      <point x="633.0" y="1453.0" type="qcurve" smooth="yes"/>
      <point x="489.0" y="1456.0"/>
      <point x="371.0" y="1276.0"/>
    </contour>
  </outline>
</glyph>
<glyph name="divide" format="2">
  <advance width="1152"/>
  <unicode hex="00F7"/>
  <outline>
    <contour>
      <point x="-29.0" y="525.0" type="line"/>
      <point x="-29.0" y="739.0" type="line"/>
      <point x="956.0" y="739.0" type="line"/>
      <point x="956.0" y="525.0" type="line"/>
    </contour>
    <contour>
      <point x="319.0" y="321.0" type="qcurve" smooth="yes"/>
      <point x="319.0" y="380.0"/>
      <point x="401.0" y="467.0"/>
      <point x="465.0" y="467.0" type="qcurve" smooth="yes"/>
      <point x="529.0" y="467.0"/>
      <point x="611.0" y="380.0"/>
      <point x="611.0" y="321.0" type="qcurve" smooth="yes"/>
      <point x="611.0" y="265.0"/>
      <point x="529.0" y="177.0"/>
      <point x="465.0" y="177.0" type="qcurve" smooth="yes"/>
      <point x="401.0" y="177.0"/>
      <point x="319.0" y="265.0"/>
    </contour>
    <contour>
      <point x="319.0" y="944.0" type="qcurve" smooth="yes"/>
      <point x="319.0" y="1001.0"/>
      <point x="401.0" y="1089.0"/>
      <point x="465.0" y="1089.0" type="qcurve" smooth="yes"/>
      <point x="529.0" y="1089.0"/>
      <point x="611.0" y="1001.0"/>
      <point x="611.0" y="944.0" type="qcurve" smooth="yes"/>
      <point x="611.0" y="886.0"/>
      <point x="529.0" y="799.0"/>
      <point x="465.0" y="799.0" type="qcurve" smooth="yes"/>
      <point x="401.0" y="799.0"/>
      <point x="319.0" y="886.0"/>
    </contour>
  </outline>
</glyph>
<glyph name="jdotless" format="2">
  <advance width="861"/>
  <unicode hex="0237"/>
  <outline>
    <contour>
      <point x="122.0" y="809.0" type="qcurve"/>
      <point x="-49.0" y="836.0" type="line"/>
      <point x="-44.0" y="918.0" type="line"/>
      <point x="508.0" y="971.0" type="line"/>
      <point x="610.0" y="958.0" type="line"/>
      <point x="618.0" y="906.0" type="line"/>
      <point x="588.0" y="769.0" type="line"/>
      <point x="500.0" y="350.0" type="line"/>
      <point x="441.0" y="-6.0"/>
      <point x="-4.0" y="-479.0"/>
      <point x="-361.0" y="-479.0" type="qcurve"/>
      <point x="-581.0" y="-419.0" type="line"/>
      <point x="-561.0" y="-345.0" type="line"/>
      <point x="-440.0" y="-343.0" type="line" smooth="yes"/>
      <point x="-203.0" y="-339.0"/>
      <point x="-37.0" y="-77.0"/>
      <point x="6.0" y="162.0" type="qcurve" smooth="yes"/>
      <point x="23.0" y="257.0"/>
      <point x="93.0" y="614.0"/>
    </contour>
  </outline>
</glyph>
<glyph name="ring" format="2">
  <advance width="896"/>
  <unicode hex="02DA"/>
  <outline>
    <contour>
      <point x="149.0" y="1371.0" type="qcurve" smooth="yes"/>
      <point x="149.0" y="1478.0"/>
      <point x="305.0" y="1635.0"/>
      <point x="448.0" y="1635.0" type="qcurve" smooth="yes"/>
      <point x="591.0" y="1635.0"/>
      <point x="747.0" y="1478.0"/>
      <point x="747.0" y="1371.0" type="qcurve" smooth="yes"/>
      <point x="747.0" y="1263.0"/>
      <point x="591.0" y="1106.0"/>
      <point x="448.0" y="1106.0" type="qcurve" smooth="yes"/>
      <point x="305.0" y="1106.0"/>
      <point x="149.0" y="1263.0"/>
    </contour>
    <contour>
      <point x="284.0" y="1371.0" type="qcurve" smooth="yes"/>
      <point x="284.0" y="1305.0"/>
      <point x="376.0" y="1221.0"/>
      <point x="448.0" y="1221.0" type="qcurve" smooth="yes"/>
      <point x="520.0" y="1221.0"/>
      <point x="612.0" y="1302.0"/>
      <point x="612.0" y="1371.0" type="qcurve" smooth="yes"/>
      <point x="612.0" y="1435.0"/>
      <point x="520.0" y="1520.0"/>
      <point x="448.0" y="1520.0" type="qcurve" smooth="yes"/>
      <point x="374.0" y="1520.0"/>
      <point x="284.0" y="1437.0"/>
    </contour>
  </outline>
</glyph>
<glyph name="hungarumlaut" format="2">
  <advance width="896"/>
  <unicode hex="02DD"/>
  <outline>
    <contour>
      <point x="159.0" y="1149.0" type="line"/>
      <point x="198.0" y="1112.0" type="line"/>
      <point x="556.0" y="1294.0" type="line" smooth="yes"/>
      <point x="582.0" y="1298.0"/>
      <point x="602.0" y="1350.0"/>
      <point x="603.0" y="1371.0" type="qcurve" smooth="yes"/>
      <point x="603.0" y="1398.0"/>
      <point x="538.0" y="1462.0"/>
      <point x="496.0" y="1462.0" type="qcurve" smooth="yes"/>
      <point x="468.0" y="1462.0"/>
      <point x="385.0" y="1406.0"/>
      <point x="357.0" y="1377.0" type="qcurve" smooth="yes"/>
    </contour>
    <contour>
      <point x="606.0" y="1149.0" type="line"/>
      <point x="645.0" y="1112.0" type="line"/>
      <point x="1000.0" y="1298.0" type="line" smooth="yes"/>
      <point x="1024.0" y="1303.0"/>
      <point x="1039.0" y="1350.0"/>
      <point x="1040.0" y="1371.0" type="qcurve" smooth="yes"/>
      <point x="1040.0" y="1398.0"/>
      <point x="979.0" y="1462.0"/>
      <point x="933.0" y="1462.0" type="qcurve" smooth="yes"/>
      <point x="905.0" y="1462.0"/>
      <point x="827.0" y="1410.0"/>
      <point x="801.0" y="1381.0" type="qcurve" smooth="yes"/>
    </contour>
  </outline>
</glyph>
<glyph name="quoteleft" format="2">
  <advance width="617"/>
  <unicode hex="2018"/>
  <outline>
    <contour>
      <point x="635.0" y="1489.0" type="line"/>
      <point x="530.0" y="1427.0"/>
      <point x="416.0" y="1333.0"/>
      <point x="385.0" y="1276.0" type="qcurve"/>
      <point x="500.0" y="1278.0"/>
      <point x="626.0" y="1172.0"/>
      <point x="626.0" y="1080.0" type="qcurve" smooth="yes"/>
      <point x="626.0" y="1004.0"/>
      <point x="512.0" y="889.0"/>
      <point x="425.0" y="889.0" type="qcurve" smooth="yes"/>
      <point x="335.0" y="889.0"/>
      <point x="213.0" y="995.0"/>
      <point x="213.0" y="1117.0" type="qcurve" smooth="yes"/>
      <point x="213.0" y="1255.0"/>
      <point x="420.0" y="1460.0"/>
      <point x="603.0" y="1535.0" type="qcurve"/>
    </contour>
  </outline>
</glyph>
<glyph name="franc" format="2">
  <advance width="1637"/>
  <unicode hex="20A3"/>
  <outline>
    <contour>
      <point x="-49.0" y="396.0" type="line"/>
      <point x="-26.0" y="482.0" type="line"/>
      <point x="1029.0" y="482.0" type="line"/>
      <point x="1005.0" y="396.0" type="line"/>
    </contour>
    <contour>
      <point x="-156.0" y="0.0" type="line"/>
      <point x="-147.0" y="55.0" type="line"/>
      <point x="-7.0" y="85.0" type="line"/>
      <point x="171.0" y="843.0" type="line"/>
      <point x="279.0" y="1409.0" type="line"/>
      <point x="110.0" y="1442.0" type="line"/>
      <point x="119.0" y="1500.0" type="line"/>
      <point x="1564.0" y="1500.0" type="line"/>
      <point x="1510.0" y="1103.0" type="line"/>
      <point x="1419.0" y="1103.0" type="line"/>
      <point x="1369.0" y="1425.0" type="line"/>
      <point x="794.0" y="1415.0" type="line"/>
      <point x="750.0" y="1388.0" type="line"/>
      <point x="623.0" y="797.0" type="line"/>
      <point x="482.0" y="85.0" type="line"/>
      <point x="663.0" y="55.0" type="line"/>
      <point x="652.0" y="0.0" type="line"/>
    </contour>
    <contour>
      <point x="314.0" y="657.0" type="line"/>
      <point x="326.0" y="700.0" type="line"/>
      <point x="1167.0" y="712.0" type="line"/>
      <point x="1284.0" y="844.0" type="line"/>
      <point x="1354.0" y="844.0" type="line"/>
      <point x="1285.0" y="532.0" type="line"/>
      <point x="1215.0" y="532.0" type="line"/>
      <point x="1152.0" y="643.0" type="line"/>
    </contour>
  </outline>
</glyph>
<glyph name="peso" format="2">
  <advance width="1778"/>
  <unicode hex="20B1"/>
  <outline>
    <contour>
      <point x="1698.0" y="1034.0" type="line"/>
      <point x="1445.0" y="1034.0" type="line"/>
      <point x="1450.0" y="1038.0" type="line"/>
      <point x="623.0" y="1038.0" type="line"/>
      <point x="640.0" y="1094.0" type="line"/>
      <point x="1461.0" y="1094.0" type="line"/>
      <point x="1465.0" y="1098.0" type="line"/>
      <point x="1721.0" y="1098.0" type="line"/>
    </contour>
    <contour>
      <point x="94.0" y="1034.0" type="line"/>
      <point x="102.0" y="1099.0" type="line"/>
      <point x="365.0" y="1099.0" type="line"/>
      <point x="361.0" y="1094.0" type="line"/>
      <point x="640.0" y="1094.0" type="line"/>
      <point x="623.0" y="1037.0" type="line"/>
      <point x="347.0" y="1037.0" type="line"/>
      <point x="344.0" y="1034.0" type="line"/>
    </contour>
    <contour>
      <point x="1733.0" y="1173.0" type="line"/>
      <point x="1463.0" y="1173.0" type="line"/>
      <point x="1466.0" y="1174.0" type="line"/>
      <point x="800.0" y="1174.0" type="line"/>
      <point x="817.0" y="1230.0" type="line"/>
      <point x="1512.0" y="1230.0" type="line"/>
      <point x="1515.0" y="1237.0" type="line"/>
      <point x="1757.0" y="1237.0" type="line"/>
    </contour>
    <contour>
      <point x="138.0" y="1173.0" type="line"/>
      <point x="148.0" y="1237.0" type="line"/>
      <point x="417.0" y="1237.0" type="line"/>
      <point x="412.0" y="1230.0" type="line"/>
      <point x="817.0" y="1230.0" type="line"/>
      <point x="800.0" y="1174.0" type="line"/>
      <point x="397.0" y="1174.0" type="line"/>
      <point x="394.0" y="1173.0" type="line"/>
    </contour>
    <contour>
      <point x="-157.0" y="0.0" type="line"/>
      <point x="-128.0" y="55.0" type="line"/>
      <point x="2.0" y="78.0" type="line"/>
      <point x="173.0" y="836.0" type="line"/>
      <point x="297.0" y="1409.0" type="line"/>
      <point x="127.0" y="1442.0" type="line"/>
      <point x="136.0" y="1500.0" type="line"/>
      <point x="1170.0" y="1500.0" type="line" smooth="yes"/>
      <point x="1406.0" y="1500.0"/>
      <point x="1671.0" y="1347.0"/>
      <point x="1653.0" y="1141.0" type="qcurve" smooth="yes"/>
      <point x="1628.0" y="897.0"/>
      <point x="1328.0" y="799.0"/>
      <point x="926.0" y="799.0" type="qcurve" smooth="yes"/>
      <point x="845.0" y="799.0"/>
      <point x="566.0" y="807.0"/>
      <point x="525.0" y="821.0" type="qcurve"/>
      <point x="539.0" y="905.0" type="line"/>
      <point x="575.0" y="899.0"/>
      <point x="818.0" y="880.0"/>
      <point x="828.0" y="880.0" type="qcurve" smooth="yes"/>
      <point x="1035.0" y="880.0"/>
      <point x="1141.0" y="916.0"/>
      <point x="1172.0" y="1123.0" type="qcurve" smooth="yes"/>
      <point x="1197.0" y="1298.0"/>
      <point x="1102.0" y="1432.0"/>
      <point x="948.0" y="1432.0" type="qcurve" smooth="yes"/>
      <point x="816.0" y="1432.0" type="line"/>
      <point x="780.0" y="1408.0" type="line"/>
      <point x="630.0" y="764.0" type="line"/>
      <point x="489.0" y="85.0" type="line"/>
      <point x="641.0" y="55.0" type="line"/>
      <point x="620.0" y="0.0" type="line"/>
    </contour>
  </outline>
</glyph>
<glyph name="approxequal" format="2">
  <advance width="1152"/>
  <unicode hex="2248"/>
  <outline>
    <contour>
      <point x="56.0" y="797.0" type="line"/>
      <point x="97.0" y="869.0"/>
      <point x="234.0" y="1007.0"/>
      <point x="312.0" y="1016.0" type="qcurve"/>
      <point x="728.0" y="896.0" type="line"/>
      <point x="782.0" y="896.0"/>
      <point x="862.0" y="986.0"/>
      <point x="888.0" y="1024.0" type="qcurve"/>
      <point x="914.0" y="910.0" type="line"/>
      <point x="887.0" y="844.0"/>
      <point x="779.0" y="687.0"/>
      <point x="679.0" y="677.0" type="qcurve"/>
      <point x="281.0" y="790.0" type="line"/>
      <point x="227.0" y="790.0"/>
      <point x="122.0" y="723.0"/>
      <point x="77.0" y="679.0" type="qcurve"/>
    </contour>
    <contour>
      <point x="56.0" y="450.0" type="line"/>
      <point x="97.0" y="522.0"/>
      <point x="234.0" y="660.0"/>
      <point x="312.0" y="669.0" type="qcurve"/>
      <point x="728.0" y="549.0" type="line"/>
      <point x="782.0" y="549.0"/>
      <point x="862.0" y="638.0"/>
      <point x="888.0" y="677.0" type="qcurve"/>
      <point x="914.0" y="563.0" type="line"/>
      <point x="887.0" y="496.0"/>
      <point x="779.0" y="340.0"/>
      <point x="679.0" y="330.0" type="qcurve"/>
      <point x="281.0" y="443.0" type="line"/>
      <point x="227.0" y="443.0"/>
      <point x="122.0" y="376.0"/>
      <point x="77.0" y="332.0" type="qcurve"/>
    </contour>
  </outline>
</glyph>
<glyph name="f_f_l" format="2">
  <advance width="2905"/>
  <unicode hex="FB04"/>
  <outline>
    <contour>
      <point x="-469.0" y="-419.0" type="line" smooth="yes"/>
      <point x="-450.0" y="-360.0" type="line"/>
      <point x="-289.0" y="-360.0" type="line" smooth="yes"/>
      <point x="-88.0" y="-361.0"/>
      <point x="84.0" y="-68.0"/>
      <point x="148.0" y="347.0" type="qcurve" smooth="yes"/>
      <point x="227.0" y="852.0" type="line"/>
      <point x="229.0" y="857.0" type="line"/>
      <point x="259.0" y="1035.0" type="line" smooth="yes"/>
      <point x="301.0" y="1263.0"/>
      <point x="663.0" y="1533.0"/>
      <point x="926.0" y="1532.0" type="qcurve" smooth="yes"/>
      <point x="1107.0" y="1531.0"/>
      <point x="1284.0" y="1437.0"/>
      <point x="1279.0" y="1348.0" type="qcurve" smooth="yes"/>
      <point x="1275.0" y="1279.0"/>
      <point x="1184.0" y="1202.0"/>
      <point x="1107.0" y="1207.0" type="qcurve" smooth="yes"/>
      <point x="1105.0" y="1233.0"/>
      <point x="1094.0" y="1294.0"/>
      <point x="1095.0" y="1328.0" type="qcurve" smooth="yes"/>
      <point x="1095.0" y="1366.0"/>
      <point x="1058.0" y="1462.0"/>
      <point x="984.0" y="1462.0" type="qcurve" smooth="yes"/>
      <point x="893.0" y="1462.0"/>
      <point x="782.0" y="1278.0"/>
      <point x="737.0" y="1022.0" type="qcurve" smooth="yes"/>
      <point x="705.0" y="858.0" type="line"/>
      <point x="704.0" y="852.0" type="line"/>
      <point x="665.0" y="581.0" type="line" smooth="yes"/>
      <point x="585.0" y="24.0"/>
      <point x="46.0" y="-479.0"/>
      <point x="-231.0" y="-479.0" type="qcurve"/>
    </contour>
    <contour>
      <point x="538.0" y="-391.0" type="line" smooth="yes"/>
      <point x="558.0" y="-332.0" type="line"/>
      <point x="739.0" y="-332.0" type="line" smooth="yes"/>
      <point x="940.0" y="-333.0"/>
      <point x="1108.0" y="-37.0"/>
      <point x="1176.0" y="375.0" type="qcurve" smooth="yes"/>
      <point x="1254.0" y="851.0" type="line"/>
      <point x="1256.0" y="856.0" type="line"/>
      <point x="1314.0" y="1181.0" type="line" smooth="yes"/>
      <point x="1321.0" y="1255.0"/>
      <point x="1616.0" y="1548.0"/>
      <point x="1889.0" y="1550.0" type="qcurve" smooth="yes"/>
      <point x="2097.0" y="1552.0"/>
      <point x="2287.0" y="1455.0"/>
      <point x="2282.0" y="1356.0" type="qcurve" smooth="yes"/>
      <point x="2278.0" y="1277.0"/>
      <point x="2185.0" y="1203.0"/>
      <point x="2110.0" y="1208.0" type="qcurve" smooth="yes"/>
      <point x="2098.0" y="1233.0"/>
      <point x="2089.0" y="1308.0"/>
      <point x="2088.0" y="1342.0" type="qcurve" smooth="yes"/>
      <point x="2084.0" y="1390.0"/>
      <point x="2033.0" y="1480.0"/>
      <point x="1947.0" y="1480.0" type="qcurve" smooth="yes"/>
      <point x="1846.0" y="1480.0"/>
      <point x="1803.0" y="1267.0"/>
      <point x="1784.0" y="1168.0" type="qcurve" smooth="yes"/>
      <point x="1732.0" y="859.0" type="line"/>
      <point x="1733.0" y="851.0" type="line"/>
      <point x="1692.0" y="609.0" type="line" smooth="yes"/>
      <point x="1601.0" y="48.0"/>
      <point x="1073.0" y="-451.0"/>
      <point x="796.0" y="-451.0" type="qcurve"/>
    </contour>
    <contour>
      <point x="-10.0" y="771.0" type="line"/>
      <point x="-3.0" y="857.0" type="line"/>
      <point x="252.0" y="862.0" type="line"/>
      <point x="1959.0" y="875.0" type="line"/>
      <point x="1947.0" y="791.0" type="line"/>
      <point x="608.0" y="776.0" type="line"/>
      <point x="249.0" y="765.0" type="line"/>
    </contour>
    <contour>
      <point x="2074.0" y="-26.0" type="line"/>
      <point x="2026.0" y="43.0" type="line"/>
      <point x="2154.0" y="604.0" type="line"/>
      <point x="2285.0" y="1365.0" type="line"/>
      <point x="2090.0" y="1353.0" type="line"/>
      <point x="2102.0" y="1404.0" type="line"/>
      <point x="2729.0" y="1536.0" type="line"/>
      <point x="2761.0" y="1472.0" type="line"/>
      <point x="2591.0" y="588.0" type="line"/>
      <point x="2502.0" y="129.0" type="line"/>
      <point x="2736.0" y="137.0" type="line"/>
      <point x="2727.0" y="76.0" type="line"/>
    </contour>
  </outline>
</glyph>
<glyph name="acutecomb.case" format="2">
  <advance width="896"/>
  <outline>
    <contour>
      <point x="222.0" y="1615.0" type="line"/>
      <point x="264.0" y="1594.0" type="line"/>
      <point x="615.0" y="1783.0" type="line" smooth="yes"/>
      <point x="651.0" y="1799.0"/>
      <point x="649.0" y="1872.0"/>
      <point x="649.0" y="1894.0" type="qcurve" smooth="yes"/>
      <point x="649.0" y="1924.0"/>
      <point x="595.0" y="1964.0"/>
      <point x="552.0" y="1964.0" type="qcurve" smooth="yes"/>
      <point x="517.0" y="1964.0"/>
      <point x="436.0" y="1924.0"/>
      <point x="401.0" y="1876.0" type="qcurve" smooth="yes"/>
    </contour>
  </outline>
</glyph>
<glyph name="brevecomb.case" format="2">
  <advance width="896"/>
  <outline>
    <contour>
      <point x="941.0" y="1903.0" type="qcurve"/>
      <point x="962.0" y="1912.0" type="line"/>
      <point x="922.0" y="1824.0"/>
      <point x="656.0" y="1600.0"/>
      <point x="534.0" y="1600.0" type="qcurve" smooth="yes"/>
      <point x="377.0" y="1600.0"/>
      <point x="239.0" y="1800.0"/>
      <point x="291.0" y="1933.0" type="qcurve"/>
      <point x="306.0" y="1930.0" type="line"/>
      <point x="330.0" y="1861.0"/>
      <point x="470.0" y="1770.0"/>
      <point x="577.0" y="1770.0" type="qcurve" smooth="yes"/>
      <point x="715.0" y="1770.0"/>
      <point x="923.0" y="1884.0"/>
    </contour>
  </outline>
</glyph>
<glyph name="breveinvertedcomb.case" format="2">
  <advance width="896"/>
  <outline>
    <contour>
      <point x="174.0" y="1646.0" type="qcurve"/>
      <point x="119.0" y="1663.0" type="line"/>
      <point x="165.0" y="1773.0"/>
      <point x="403.0" y="1952.0"/>
      <point x="572.0" y="1943.0" type="qcurve" smooth="yes"/>
      <point x="740.0" y="1932.0"/>
      <point x="872.0" y="1722.0"/>
      <point x="858.0" y="1603.0" type="qcurve"/>
      <point x="778.0" y="1595.0" type="line"/>
      <point x="753.0" y="1667.0"/>
      <point x="635.0" y="1768.0"/>
      <point x="526.0" y="1777.0" type="qcurve" smooth="yes"/>
      <point x="408.0" y="1785.0"/>
      <point x="238.0" y="1719.0"/>
    </contour>
  </outline>
</glyph>
<glyph name="cedillacomb.case" format="2">
  <advance width="896"/>
  <outline>
    <contour>
      <point x="256.0" y="-14.0" type="line"/>
      <point x="169.0" y="-111.0" type="line"/>
      <point x="194.0" y="-97.0"/>
      <point x="302.0" y="-77.0"/>
      <point x="370.0" y="-77.0" type="qcurve" smooth="yes"/>
      <point x="485.0" y="-77.0"/>
      <point x="643.0" y="-169.0"/>
      <point x="644.0" y="-267.0" type="qcurve" smooth="yes"/>
      <point x="643.0" y="-376.0"/>
      <point x="409.0" y="-481.0"/>
      <point x="239.0" y="-481.0" type="qcurve" smooth="yes"/>
      <point x="121.0" y="-481.0"/>
      <point x="-36.0" y="-419.0"/>
      <point x="-85.0" y="-358.0" type="qcurve"/>
      <point x="-52.0" y="-349.0" type="line"/>
      <point x="2.0" y="-389.0"/>
      <point x="109.0" y="-426.0"/>
      <point x="225.0" y="-426.0" type="qcurve" smooth="yes"/>
      <point x="339.0" y="-426.0"/>
      <point x="453.0" y="-337.0"/>
      <point x="453.0" y="-281.0" type="qcurve" smooth="yes"/>
      <point x="449.0" y="-243.0"/>
      <point x="352.0" y="-156.0"/>
      <point x="291.0" y="-156.0" type="qcurve" smooth="yes"/>
      <point x="253.0" y="-156.0"/>
      <point x="154.0" y="-171.0"/>
      <point x="133.0" y="-180.0" type="qcurve"/>
      <point x="103.0" y="-143.0" type="line"/>
      <point x="218.0" y="2.0" type="line"/>
    </contour>
  </outline>
</glyph>
<glyph name="commaaccentcomb" format="2">
  <advance width="896"/>
  <outline>
    <contour>
      <point x="108.0" y="-629.0" type="qcurve"/>
      <point x="119.0" y="-656.0" type="line"/>
      <point x="260.0" y="-593.0"/>
      <point x="469.0" y="-406.0"/>
      <point x="480.0" y="-280.0" type="qcurve" smooth="yes"/>
      <point x="488.0" y="-221.0"/>
      <point x="430.0" y="-159.0"/>
      <point x="362.0" y="-159.0" type="qcurve" smooth="yes"/>
      <point x="292.0" y="-159.0"/>
      <point x="203.0" y="-246.0"/>
      <point x="194.0" y="-313.0" type="qcurve" smooth="yes"/>
      <point x="186.0" y="-367.0"/>
      <point x="247.0" y="-453.0"/>
      <point x="318.0" y="-453.0" type="qcurve"/>
      <point x="296.0" y="-492.0"/>
      <point x="186.0" y="-582.0"/>
    </contour>
  </outline>
</glyph>
<glyph name="gravecomb.case" format="2">
  <advance width="896"/>
  <outline>
    <contour>
      <point x="321.0" y="1749.0" type="qcurve" smooth="yes"/>
      <point x="722.0" y="1594.0" type="line"/>
      <point x="742.0" y="1643.0" type="line"/>
      <point x="515.0" y="1837.0" type="line" smooth="yes"/>
      <point x="463.0" y="1889.0"/>
      <point x="363.0" y="1957.0"/>
      <point x="327.0" y="1957.0" type="qcurve" smooth="yes"/>
      <point x="271.0" y="1957.0"/>
      <point x="222.0" y="1904.0"/>
      <point x="222.0" y="1866.0" type="qcurve" smooth="yes"/>
      <point x="222.0" y="1838.0"/>
      <point x="265.0" y="1769.0"/>
    </contour>
  </outline>
</glyph>
<glyph name="hookabovecomb" format="2">
  <advance width="896"/>
  <outline>
    <contour>
      <point x="362.0" y="1302.0" type="line"/>
      <point x="435.0" y="1323.0" type="line"/>
      <point x="470.0" y="1317.0"/>
      <point x="542.0" y="1314.0"/>
      <point x="563.0" y="1314.0" type="qcurve" smooth="yes"/>
      <point x="644.0" y="1314.0"/>
      <point x="758.0" y="1380.0"/>
      <point x="755.0" y="1423.0" type="qcurve" smooth="yes"/>
      <point x="752.0" y="1469.0"/>
      <point x="664.0" y="1489.0"/>
      <point x="594.0" y="1489.0" type="qcurve" smooth="yes"/>
      <point x="543.0" y="1489.0"/>
      <point x="435.0" y="1470.0"/>
      <point x="361.0" y="1449.0" type="qcurve"/>
      <point x="358.0" y="1529.0" type="line"/>
      <point x="394.0" y="1554.0"/>
      <point x="613.0" y="1617.0"/>
      <point x="682.0" y="1617.0" type="qcurve" smooth="yes"/>
      <point x="859.0" y="1617.0"/>
      <point x="971.0" y="1505.0"/>
      <point x="975.0" y="1446.0" type="qcurve" smooth="yes"/>
      <point x="977.0" y="1337.0"/>
      <point x="794.0" y="1212.0"/>
      <point x="627.0" y="1210.0" type="qcurve" smooth="yes"/>
      <point x="578.0" y="1210.0"/>
      <point x="486.0" y="1219.0"/>
      <point x="468.0" y="1221.0" type="qcurve"/>
      <point x="415.0" y="1067.0" type="line"/>
      <point x="289.0" y="1067.0" type="line"/>
    </contour>
  </outline>
</glyph>
<glyph name="hookabovecombstack.case" format="2">
  <advance width="896"/>
  <outline>
    <contour>
      <point x="353.0" y="1667.0" type="line"/>
      <point x="414.0" y="1853.0" type="line"/>
      <point x="475.0" y="1842.0" type="line"/>
      <point x="505.0" y="1838.0"/>
      <point x="567.0" y="1834.0"/>
      <point x="585.0" y="1834.0" type="qcurve" smooth="yes"/>
      <point x="658.0" y="1834.0"/>
      <point x="766.0" y="1893.0"/>
      <point x="767.0" y="1950.0" type="qcurve" smooth="yes"/>
      <point x="767.0" y="1994.0"/>
      <point x="679.0" y="2022.0"/>
      <point x="618.0" y="2022.0" type="qcurve" smooth="yes"/>
      <point x="576.0" y="2022.0"/>
      <point x="502.0" y="1998.0"/>
      <point x="436.0" y="1977.0" type="qcurve"/>
      <point x="439.0" y="2046.0" type="line"/>
      <point x="484.0" y="2076.0"/>
      <point x="640.0" y="2140.0"/>
      <point x="700.0" y="2140.0" type="qcurve" smooth="yes"/>
      <point x="854.0" y="2140.0"/>
      <point x="950.0" y="2038.0"/>
      <point x="960.0" y="1984.0" type="qcurve" smooth="yes"/>
      <point x="967.0" y="1861.0"/>
      <point x="800.0" y="1737.0"/>
      <point x="637.0" y="1735.0" type="qcurve" smooth="yes"/>
      <point x="595.0" y="1735.0"/>
      <point x="529.0" y="1739.0"/>
      <point x="501.0" y="1747.0" type="qcurve"/>
      <point x="462.0" y="1667.0" type="line"/>
    </contour>
  </outline>
</glyph>
<glyph name="hornU" format="2">
  <advance width="2006"/>
  <outline>
    <contour>
      <point x="106.0" y="1442.0" type="line"/>
      <point x="115.0" y="1500.0" type="line"/>
      <point x="980.0" y="1500.0" type="line"/>
      <point x="959.0" y="1442.0" type="line"/>
      <point x="778.0" y="1421.0" type="line"/>
      <point x="651.0" y="794.0" type="line" smooth="yes"/>
      <point x="624.0" y="663.0"/>
      <point x="547.0" y="376.0"/>
      <point x="553.0" y="239.0" type="qcurve" smooth="yes"/>
      <point x="558.0" y="148.0"/>
      <point x="772.0" y="104.0"/>
      <point x="967.0" y="104.0" type="qcurve" smooth="yes"/>
      <point x="1195.0" y="104.0"/>
      <point x="1524.0" y="274.0"/>
      <point x="1559.0" y="423.0" type="qcurve" smooth="yes"/>
      <point x="1642.0" y="794.0" type="line"/>
      <point x="1782.0" y="1413.0" type="line"/>
      <point x="1553.0" y="1442.0" type="line"/>
      <point x="1572.0" y="1500.0" type="line"/>
      <point x="1867.0" y="1500.0" type="line"/>
      <point x="1723.0" y="794.0" type="line"/>
      <point x="1639.0" y="410.0" type="line" smooth="yes"/>
      <point x="1594.0" y="221.0"/>
      <point x="1183.0" y="-32.0"/>
      <point x="844.0" y="-32.0" type="qcurve" smooth="yes"/>
      <point x="511.0" y="-32.0"/>
      <point x="83.0" y="111.0"/>
      <point x="67.0" y="310.0" type="qcurve" smooth="yes"/>
      <point x="61.0" y="412.0"/>
      <point x="129.0" y="773.0"/>
      <point x="134.0" y="794.0" type="qcurve" smooth="yes"/>
      <point x="267.0" y="1421.0" type="line"/>
    </contour>
  </outline>
</glyph>
<glyph name="horncomb.case" format="2">
  <advance width="896"/>
  <outline>
    <contour>
      <point x="78.0" y="1506.0" type="line"/>
      <point x="170.0" y="1506.0"/>
      <point x="265.0" y="1506.0"/>
      <point x="327.0" y="1506.0" type="qcurve" smooth="yes"/>
      <point x="493.0" y="1506.0"/>
      <point x="608.0" y="1644.0"/>
      <point x="607.0" y="1785.0" type="qcurve" smooth="yes"/>
      <point x="600.0" y="1793.0"/>
      <point x="595.0" y="1800.0"/>
      <point x="592.0" y="1797.0" type="qcurve"/>
      <point x="653.0" y="1797.0" type="line"/>
      <point x="664.0" y="1758.0"/>
      <point x="682.0" y="1756.0"/>
      <point x="703.0" y="1773.0" type="qcurve" smooth="yes"/>
      <point x="722.0" y="1600.0"/>
      <point x="525.0" y="1429.0"/>
      <point x="326.0" y="1429.0" type="qcurve" smooth="yes"/>
      <point x="262.0" y="1429.0"/>
      <point x="126.0" y="1450.0"/>
      <point x="65.0" y="1473.0" type="qcurve"/>
    </contour>
  </outline>
</glyph>
<glyph name="macroncombstack.case" format="2">
  <advance width="896"/>
  <outline>
    <contour>
      <point x="68.0" y="1669.0" type="line"/>
      <point x="99.0" y="1810.0" type="line"/>
      <point x="873.0" y="1810.0" type="line"/>
      <point x="842.0" y="1669.0" type="line"/>
    </contour>
  </outline>
</glyph>
<glyph name="nine.lf" format="2">
  <advance width="1567"/>
  <outline>
    <contour>
      <point x="-24.0" y="-45.0" type="qcurve"/>
      <point x="-48.0" y="20.0" type="line"/>
      <point x="425.0" y="166.0"/>
      <point x="932.0" y="658.0"/>
      <point x="958.0" y="1041.0" type="qcurve" smooth="yes"/>
      <point x="972.0" y="1201.0"/>
      <point x="869.0" y="1454.0"/>
      <point x="741.0" y="1454.0" type="qcurve" smooth="yes"/>
      <point x="604.0" y="1454.0"/>
      <point x="413.0" y="1243.0"/>
      <point x="416.0" y="1096.0" type="qcurve" smooth="yes"/>
      <point x="416.0" y="953.0"/>
      <point x="542.0" y="767.0"/>
      <point x="629.0" y="767.0" type="qcurve" smooth="yes"/>
      <point x="672.0" y="767.0"/>
      <point x="752.0" y="778.0"/>
      <point x="793.0" y="817.0" type="qcurve"/>
      <point x="810.0" y="746.0" type="line"/>
      <point x="761.0" y="698.0"/>
      <point x="572.0" y="641.0"/>
      <point x="468.0" y="641.0" type="qcurve" smooth="yes"/>
      <point x="222.0" y="641.0"/>
      <point x="14.0" y="859.0"/>
      <point x="23.0" y="1046.0" type="qcurve" smooth="yes"/>
      <point x="37.0" y="1283.0"/>
      <point x="452.0" y="1521.0"/>
      <point x="785.0" y="1521.0" type="qcurve" smooth="yes"/>
      <point x="1035.0" y="1521.0"/>
      <point x="1411.0" y="1254.0"/>
      <point x="1402.0" y="1016.0" type="qcurve" smooth="yes"/>
      <point x="1389.0" y="584.0"/>
      <point x="541.0" y="24.0"/>
    </contour>
  </outline>
</glyph>
<glyph name="one.lc" format="2">
  <advance width="1170"/>
  <outline>
    <contour>
      <point x="357.0" y="24.0" type="line"/>
      <point x="383.0" y="56.0"/>
      <point x="408.0" y="151.0"/>
      <point x="441.0" y="299.0" type="qcurve" smooth="yes"/>
      <point x="496.0" y="510.0" type="line"/>
      <point x="536.0" y="715.0" type="line"/>
      <point x="66.0" y="536.0" type="line"/>
      <point x="14.0" y="634.0" type="line"/>
      <point x="877.0" y="931.0" type="line"/>
      <point x="1003.0" y="838.0" type="line"/>
      <point x="981.0" y="798.0"/>
      <point x="971.0" y="729.0"/>
      <point x="957.0" y="651.0" type="qcurve" smooth="yes"/>
      <point x="897.0" y="410.0" type="line"/>
      <point x="849.0" y="135.0" type="line"/>
      <point x="495.0" y="-33.0" type="line"/>
    </contour>
  </outline>
</glyph>
<glyph name="seven.tab" format="2">
  <advance width="1923"/>
  <outline>
    <contour>
      <point x="275.0" y="1104.0" type="line"/>
      <point x="418.0" y="1500.0" type="line"/>
      <point x="1652.0" y="1500.0" type="line"/>
      <point x="1682.0" y="1444.0" type="line"/>
      <point x="1391.0" y="1194.0"/>
      <point x="746.0" y="433.0"/>
      <point x="627.0" y="4.0" type="qcurve"/>
      <point x="388.0" y="-21.0" type="line"/>
      <point x="353.0" y="10.0" type="line"/>
      <point x="526.0" y="442.0"/>
      <point x="910.0" y="895.0"/>
      <point x="1312.0" y="1211.0" type="qcurve"/>
      <point x="1296.0" y="1230.0" type="line"/>
      <point x="421.0" y="1230.0" type="line"/>
      <point x="355.0" y="1104.0" type="line"/>
    </contour>
  </outline>
</glyph>
<glyph name="zero.lc" format="2">
  <advance width="1830"/>
  <outline>
    <contour>
      <point x="46.0" y="505.0" type="qcurve" smooth="yes"/>
      <point x="80.0" y="722.0"/>
      <point x="597.0" y="934.0"/>
      <point x="979.0" y="929.0" type="qcurve" smooth="yes"/>
      <point x="1310.0" y="925.0"/>
      <point x="1747.0" y="628.0"/>
      <point x="1710.0" y="409.0" type="qcurve" smooth="yes"/>
      <point x="1673.0" y="195.0"/>
      <point x="1129.0" y="-46.0"/>
      <point x="747.0" y="-30.0" type="qcurve" smooth="yes"/>
      <point x="395.0" y="-14.0"/>
      <point x="9.0" y="265.0"/>
    </contour>
    <contour>
      <point x="525.0" y="473.0" type="qcurve" smooth="yes"/>
      <point x="503.0" y="317.0"/>
      <point x="633.0" y="68.0"/>
      <point x="801.0" y="60.0" type="qcurve" smooth="yes"/>
      <point x="978.0" y="53.0"/>
      <point x="1204.0" y="272.0"/>
      <point x="1228.0" y="439.0" type="qcurve" smooth="yes"/>
      <point x="1251.0" y="602.0"/>
      <point x="1093.0" y="831.0"/>
      <point x="945.0" y="835.0" type="qcurve" smooth="yes"/>
      <point x="777.0" y="840.0"/>
      <point x="543.0" y="620.0"/>
    </contour>
  </outline>
</glyph>
<glyph name="zero.tab" format="2">
  <advance width="1923"/>
  <outline>
    <contour>
      <point x="1.0" y="923.0" type="qcurve" smooth="yes"/>
      <point x="69.0" y="1222.0"/>
      <point x="670.0" y="1542.0"/>
      <point x="1012.0" y="1508.0" type="qcurve" smooth="yes"/>
      <point x="1374.0" y="1470.0"/>
      <point x="1771.0" y="943.0"/>
      <point x="1697.0" y="621.0" type="qcurve" smooth="yes"/>
      <point x="1626.0" y="316.0"/>
      <point x="1024.0" y="-31.0"/>
      <point x="685.0" y="3.0" type="qcurve" smooth="yes"/>
      <point x="314.0" y="42.0"/>
      <point x="-73.0" y="577.0"/>
    </contour>
    <contour>
      <point x="447.0" y="890.0" type="qcurve" smooth="yes"/>
      <point x="388.0" y="610.0"/>
      <point x="499.0" y="124.0"/>
      <point x="708.0" y="92.0" type="qcurve" smooth="yes"/>
      <point x="923.0" y="58.0"/>
      <point x="1185.0" y="314.0"/>
      <point x="1248.0" y="646.0" type="qcurve" smooth="yes"/>
      <point x="1306.0" y="950.0"/>
      <point x="1190.0" y="1385.0"/>
      <point x="982.0" y="1417.0" type="qcurve" smooth="yes"/>
      <point x="781.0" y="1447.0"/>
      <point x="513.0" y="1207.0"/>
    </contour>
  </outline>
</glyph>
